<?xml version="1.0" encoding="UTF-8"?>
<svg id="img" xmlns="http://www.w3.org/2000/svg" viewBox="0 0 625 160">
  <defs>
    <style>
      .cls-1 {
        fill: #ef5c4e;
      }

      .cls-2 {
        fill: #fff;
        stroke: #ef5c4e;
        stroke-miterlimit: 10;
        stroke-width: 4px;
      }
    </style>
  </defs>
  <g>
    <path class="cls-1" d="M217.9,93.59v-54.87h-36.58v-13.72h52.59v68.59h-16.01ZM261.34,54.72v75.45h-16V25h16v16.01h9.15v13.72h-9.15Z"/>
    <path class="cls-1" d="M318.87,91.3v38.87h-16.01v-38.87h-30.86v-13.72h57.16v-38.87h-57.16v-13.72h73.16v52.59h4.57v13.72h-30.86Z"/>
    <path class="cls-1" d="M357.98,78.35v-13.72h33.15v-6.86h-29.72V25.25h16v19.94h59.45v12.58h-29.72v6.86h33.15v13.72h-82.31ZM419.46,101.85c1.65,3.05,2.54,6.6,2.54,10.29,0,12.58-10.29,22.86-22.86,22.86s-22.86-10.29-22.86-22.86c0-3.68.89-7.24,2.41-10.29h-14.99v-13.72h26.93v-6.35h17.15v6.35h26.8v13.72h-15.12ZM399.01,103.37c-4.83,0-8.76,3.94-8.76,8.76s4.06,8.64,8.89,8.64,8.64-3.81,8.64-8.64-3.94-8.76-8.76-8.76Z"/>
    <path class="cls-1" d="M495.41,91.3v38.87h-16v-38.87h-30.87v-13.72h57.16v-38.87h-57.16v-13.72h73.16v52.59h4.57v13.72h-30.87Z"/>
    <path class="cls-1" d="M570.98,93.59v-54.87h-36.58v-13.72h52.59v68.59h-16ZM614.42,54.72v75.45h-16V25h16v16.01h9.15v13.72h-9.15Z"/>
  </g>
  <g>
    <rect class="cls-1" x="1.44" y="0" width="160" height="160" rx="40" ry="40"/>
    <g>
      <path class="cls-2" d="M38.44,50h43v36H30.44v-28c0-4.42,3.58-8,8-8Z"/>
      <path class="cls-2" d="M81.44,50h43c4.42,0,8,3.58,8,8v28h-51v-36h0Z"/>
      <path class="cls-2" d="M26.44,68h8c2.76,0,5,2.24,5,5v31h-13c-2.76,0-5-2.24-5-5v-26c0-2.76,2.24-5,5-5Z"/>
      <rect class="cls-2" x="39.44" y="86" width="84" height="18"/>
      <path class="cls-2" d="M128.44,68h8c2.76,0,5,2.24,5,5v26c0,2.76-2.24,5-5,5h-13v-31c0-2.76,2.24-5,5-5Z"/>
      <path class="cls-2" d="M123.44,104h10.5v3c0,2.21-1.79,4-4,4h-2.5c-2.21,0-4-1.79-4-4v-3h0Z"/>
      <path class="cls-2" d="M28.94,104h10.5v3c0,2.21-1.79,4-4,4h-2.5c-2.21,0-4-1.79-4-4v-3h0Z"/>
    </g>
  </g>
</svg>