<?xml version="1.0" encoding="UTF-8"?>
<svg id="img" xmlns="http://www.w3.org/2000/svg" viewBox="0 0 445 160">
  <defs>
    <style>
      .cls-1 {
        fill: #ef5c4e;
      }
    </style>
  </defs>
  <path class="cls-1" d="M37.96,93.59v-54.87H1.38v-13.72h52.59v68.59h-16.01ZM81.4,54.72v75.45h-16V25h16v16.01h9.15v13.72h-9.15Z"/>
  <path class="cls-1" d="M138.93,91.3v38.87h-16.01v-38.87h-30.86v-13.72h57.16v-38.87h-57.16v-13.72h73.16v52.59h4.57v13.72h-30.86Z"/>
  <path class="cls-1" d="M178.04,78.35v-13.72h33.15v-6.86h-29.72V25.25h16v19.94h59.45v12.58h-29.72v6.86h33.15v13.72h-82.31ZM239.52,101.85c1.65,3.05,2.54,6.6,2.54,10.29,0,12.58-10.29,22.86-22.86,22.86s-22.86-10.29-22.86-22.86c0-3.68.89-7.24,2.41-10.29h-14.99v-13.72h26.93v-6.35h17.15v6.35h26.8v13.72h-15.12ZM219.07,103.37c-4.83,0-8.76,3.94-8.76,8.76s4.06,8.64,8.89,8.64,8.64-3.81,8.64-8.64-3.94-8.76-8.76-8.76Z"/>
  <path class="cls-1" d="M315.47,91.3v38.87h-16v-38.87h-30.87v-13.72h57.16v-38.87h-57.16v-13.72h73.16v52.59h4.57v13.72h-30.87Z"/>
  <path class="cls-1" d="M391.04,93.59v-54.87h-36.58v-13.72h52.59v68.59h-16ZM434.48,54.72v75.45h-16V25h16v16.01h9.15v13.72h-9.15Z"/>
</svg>