<svg width="720" height="720" viewBox="0 0 720 720" fill="none" xmlns="http://www.w3.org/2000/svg">
<g clip-path="url(#clip0_65_2)">
<mask id="mask0_65_2" style="mask-type:luminance" maskUnits="userSpaceOnUse" x="0" y="0" width="720" height="720">
<path d="M720 0H0V720H720V0Z" fill="white"/>
</mask>
<g mask="url(#mask0_65_2)">
<path d="M720 0H0V720H720V0Z" fill="#EF5C4E"/>
<path d="M227.033 263.625H360V379.275H202.295V289.325C202.295 275.126 213.365 263.625 227.033 263.625Z" fill="white" stroke="#EF5C4E" stroke-width="4" stroke-miterlimit="10"/>
<path d="M360 263.625H492.966C506.635 263.625 517.704 275.126 517.704 289.325V379.275H360V263.625Z" fill="white" stroke="#EF5C4E" stroke-width="4" stroke-miterlimit="10"/>
<path d="M189.926 321.45H214.665C223.199 321.45 230.126 328.646 230.126 337.513V437.1H189.926C181.392 437.1 174.465 429.904 174.465 421.038V337.513C174.465 328.646 181.392 321.45 189.926 321.45Z" fill="white" stroke="#EF5C4E" stroke-width="4" stroke-miterlimit="10"/>
<path d="M489.874 379.275H230.126V437.1H489.874V379.275Z" fill="white" stroke="#EF5C4E" stroke-width="4" stroke-miterlimit="10"/>
<path d="M505.336 321.45H530.074C538.608 321.45 545.535 328.646 545.535 337.513V421.038C545.535 429.904 538.608 437.1 530.074 437.1H489.874V337.513C489.874 328.646 496.801 321.45 505.336 321.45Z" fill="white" stroke="#EF5C4E" stroke-width="4" stroke-miterlimit="10"/>
<path d="M489.874 437.1H522.343V446.737C522.343 453.837 516.808 459.587 509.974 459.587H502.243C495.409 459.587 489.874 453.837 489.874 446.737V437.1Z" fill="white" stroke="#EF5C4E" stroke-width="4" stroke-miterlimit="10"/>
<path d="M197.657 437.1H230.126V446.737C230.126 453.837 224.591 459.587 217.757 459.587H210.026C203.192 459.587 197.657 453.837 197.657 446.737V437.1Z" fill="white" stroke="#EF5C4E" stroke-width="4" stroke-miterlimit="10"/>
<path d="M216.581 514.7H239.14V518.552H216.581V514.7ZM213.185 525.536H242.259V529.46H213.185V525.536ZM225.383 516.464H229.957V526.796H225.383V516.464ZM216.581 502.136H238.898V505.952H221.156V516.356H216.581V502.136ZM260.552 505.088H268.626V508.904H260.552V505.088ZM260.552 512.252H268.765V516.068H260.552V512.252ZM246.345 502.532H261.523V518.84H246.345V502.532ZM257.018 506.276H250.884V515.06H257.018V506.276ZM267.275 499.868H271.918V524.132H267.275V499.868ZM250.676 528.776H272.611V532.628H250.676V528.776ZM250.676 521.864H255.285V530.792H250.676V521.864ZM289.762 512.108H295.029V515.96H289.762V512.108ZM300.088 499.832H304.489V533.168H300.088V499.832ZM293.573 500.372H297.87V531.692H293.573V500.372ZM284.148 502.172C285.557 502.172 286.781 502.664 287.821 503.648C288.884 504.608 289.692 506 290.247 507.824C290.824 509.624 291.113 511.784 291.113 514.304C291.113 516.8 290.824 518.96 290.247 520.784C289.692 522.608 288.884 524.012 287.821 524.996C286.781 525.956 285.545 526.436 284.113 526.436C282.727 526.436 281.503 525.956 280.44 524.996C279.4 524.012 278.592 522.608 278.014 520.784C277.46 518.96 277.183 516.8 277.183 514.304C277.183 511.784 277.46 509.624 278.014 507.824C278.592 506 279.4 504.608 280.44 503.648C281.503 502.664 282.739 502.172 284.148 502.172ZM284.148 506.708C283.57 506.708 283.074 506.984 282.658 507.536C282.242 508.088 281.919 508.928 281.687 510.056C281.48 511.16 281.376 512.576 281.376 514.304C281.376 515.984 281.48 517.388 281.687 518.516C281.919 519.644 282.242 520.496 282.658 521.072C283.074 521.624 283.57 521.9 284.148 521.9C284.725 521.9 285.222 521.624 285.638 521.072C286.077 520.496 286.4 519.644 286.608 518.516C286.816 517.388 286.92 515.984 286.92 514.304C286.92 512.576 286.816 511.16 286.608 510.056C286.4 508.928 286.077 508.088 285.638 507.536C285.222 506.984 284.725 506.708 284.148 506.708ZM330.823 499.832H335.431V533.276H330.823V499.832ZM310.759 521.36H313.531C315.772 521.36 317.736 521.336 319.422 521.288C321.132 521.24 322.691 521.144 324.1 521C325.532 520.856 326.965 520.64 328.397 520.352L328.813 524.312C327.357 524.6 325.891 524.828 324.412 524.996C322.957 525.14 321.351 525.236 319.595 525.284C317.84 525.308 315.818 525.32 313.531 525.32H310.759V521.36ZM310.759 502.784H326.214V506.672H315.333V522.872H310.759V502.784ZM363.012 499.796H367.621V533.24H363.012V499.796ZM357.502 511.568H363.566V515.456H357.502V511.568ZM342.116 521.864H344.715C346.494 521.864 348.134 521.84 349.636 521.792C351.161 521.744 352.639 521.66 354.072 521.54C355.504 521.42 356.971 521.252 358.472 521.036L358.923 524.816C357.375 525.08 355.85 525.272 354.349 525.392C352.87 525.512 351.346 525.596 349.775 525.644C348.204 525.692 346.517 525.716 344.715 525.716H342.116V521.864ZM342.116 502.604H356.982V506.492H346.725V523.052H342.116V502.604ZM345.651 511.892H355.908V515.636H345.651V511.892ZM400.903 499.868H405.547V533.204H400.903V499.868ZM404.542 512.252H410.19V516.212H404.542V512.252ZM381.394 502.46H385.968V510.596H392.414V502.46H396.988V525.464H381.394V502.46ZM385.968 514.304V521.648H392.414V514.304H385.968ZM412.301 525.644H441.374V529.532H412.301V525.644ZM424.499 519.308H429.073V527.192H424.499V519.308ZM415.593 501.992H438.082V513.116H420.202V518.696H415.628V509.372H433.508V505.808H415.593V501.992ZM415.628 516.824H438.81V520.64H415.628V516.824ZM464.659 499.796H469.302V533.132H464.659V499.796ZM468.124 512.576H473.773V516.5H468.124V512.576ZM456.238 503.252H460.778C460.778 506.588 460.316 509.744 459.392 512.72C458.491 515.696 456.989 518.432 454.887 520.928C452.808 523.4 449.989 525.56 446.432 527.408L443.833 523.772C446.651 522.26 448.973 520.556 450.798 518.66C452.646 516.764 454.009 514.616 454.887 512.216C455.788 509.792 456.238 507.092 456.238 504.116V503.252ZM445.6 503.252H458.629V507.104H445.6V503.252ZM498.165 499.832H502.774V533.168H498.165V499.832ZM488.705 503.288H493.244C493.244 505.832 493.002 508.268 492.517 510.596C492.055 512.9 491.269 515.072 490.16 517.112C489.074 519.152 487.573 521.048 485.655 522.8C483.761 524.528 481.393 526.112 478.552 527.552L476.126 523.772C479.222 522.212 481.682 520.496 483.507 518.624C485.355 516.728 486.683 514.592 487.492 512.216C488.301 509.816 488.705 507.128 488.705 504.152V503.288ZM477.859 503.288H490.853V507.104H477.859V503.288Z" fill="white"/>
</g>
</g>
<defs>
<clipPath id="clip0_65_2">
<rect width="720" height="720" fill="white"/>
</clipPath>
</defs>
</svg>
