<svg width="174" height="211" viewBox="0 0 174 211" fill="none" xmlns="http://www.w3.org/2000/svg">
<path d="M164.497 19.7515H6.0675V210.502H164.497V19.7515Z" fill="#4A5580"/>
<path d="M173.082 6.56849C172.988 6.10812 172.684 5.72331 172.227 5.61098C171.493 5.43052 156.054 5.3789 136.479 5.37154L136.479 5.36974C136.479 3.37727 114.185 -1.42674e-06 86.6836 -1.42674e-06C59.1817 -1.42674e-06 36.8878 3.37727 36.8878 5.36974V5.37154C17.3128 5.3789 1.87471 5.43052 1.1396 5.61098C0.682732 5.72331 0.378524 6.10812 0.284241 6.56849C-0.12438 8.57016 -0.0652685 9.79841 0.288661 11.6712C0.376315 12.1352 0.686417 12.5201 1.14457 12.6343C1.88116 12.8147 17.4437 13.0799 37.0509 13.2807C39.0263 11.4171 60.4836 9.0711 86.6836 9.0711C112.883 9.0711 134.341 11.4171 136.315 13.2807C155.923 13.0799 171.485 12.8147 172.222 12.6343C172.68 12.5201 172.99 12.1352 173.078 11.6712C173.432 9.79841 173.491 8.57016 173.082 6.56849Z" fill="#BA523B"/>
<path d="M172.222 12.6342C171.485 12.8147 155.923 13.0799 136.315 13.2806C134.341 11.4171 112.883 9.07108 86.6835 9.07108C60.4835 9.07108 39.0255 11.4171 37.0509 13.2806C17.4429 13.0799 1.88108 12.8147 1.1445 12.6342L0.815796 12.4888C2.05437 14.4205 8.76927 25.3496 9.22761 25.4619C10.5582 25.7897 163.165 25.8063 164.497 25.4785C164.955 25.3643 171.312 14.4205 172.551 12.4888L172.222 12.6342Z" fill="#903C28"/>
<path d="M171.388 9.66218C171.342 8.8814 171.706 6.82627 172.231 6.24621C171.157 6.15229 170.082 6.05837 169.008 5.96261C169.587 6.18911 170.038 8.00302 170.18 8.60702C170.679 10.7247 168.316 10.2606 166.976 10.2919C165.311 10.3325 152.842 10.5405 148.27 10.5995C144.285 10.6492 140.3 10.6952 136.315 10.7357L136.305 10.7265V5.47285C135.65 4.97933 134.929 4.5742 134.117 4.45267C134.575 5.15611 134.949 7.26091 134.875 8.09693C134.812 8.79485 134.34 9.47982 133.699 9.69527C126.932 7.87406 108.45 5.64593 86.6836 5.64593C64.937 5.64593 46.4699 7.87042 39.6866 9.68978C39.0528 9.46881 38.5867 8.78932 38.5249 8.09693C38.4501 7.26091 38.8248 5.15611 39.283 4.45267C38.4716 4.5742 37.7502 4.97933 37.0957 5.47285V10.7026L37.051 10.7357C33.066 10.6952 29.0809 10.6492 25.0958 10.5995C20.5253 10.5405 8.05507 10.3325 6.3913 10.2919C5.05053 10.2606 2.6883 9.432 3.18605 7.31431C3.32784 6.71031 3.78029 6.18911 4.35703 5.96261C3.28383 6.05837 2.20989 6.15229 1.13668 6.24621C1.66039 6.82627 2.02427 8.8814 1.97823 9.66218C1.92427 10.5719 1.33887 11.0396 0.646851 11.4705C0.972053 12.1279 2.45664 11.9382 3.04794 11.9603C4.80377 12.0229 6.56108 12.0598 8.31766 12.0947C17.894 12.2955 27.4726 12.3985 37.051 12.4961C39.0263 10.6344 60.4836 8.28656 86.6836 8.28656C112.883 8.28656 134.341 10.6344 136.315 12.4961C145.894 12.3985 155.472 12.2955 165.049 12.0947C166.806 12.0598 168.563 12.0229 170.318 11.9603C170.911 11.9382 172.395 12.1279 172.721 11.4705C172.028 11.0396 171.443 10.5719 171.388 9.66218Z" fill="#F9AE9B"/>
<path d="M5.88489 27.1155V199.963H167.482V27.1155C167.482 25.4674 166.145 24.1305 164.497 24.1305H8.86935C7.22142 24.1305 5.88489 25.4674 5.88489 27.1155Z" fill="#FDFAEC"/>
<path d="M163.223 24.1305V199.963H166.16V27.1155C166.16 25.4674 164.845 24.1305 163.223 24.1305ZM10.1432 199.963H7.20703V27.1155C7.20703 25.4674 8.52202 24.1305 10.1432 24.1305V199.963Z" fill="#E9D8C3"/>
<path d="M168.832 75.0563H4.5354V199.116H168.832V75.0563Z" fill="#E9D8C3"/>
<path d="M9.09953 190.695V94.8907H164.552V190.695H9.09953ZM167.486 71.6035H5.88489V199.116H167.767L167.486 71.6035Z" fill="#D8BAA0"/>
<path d="M157.904 190.695H14.1844V94.8907H157.904V190.695Z" fill="#FDFAEC"/>
<path d="M173.082 194.917C172.988 194.457 172.684 194.072 172.227 193.96C171.493 193.779 1.87471 193.779 1.1396 193.96C0.682732 194.072 0.378524 194.457 0.284241 194.917C-0.12438 196.919 -0.0652685 199.44 0.288661 201.311C0.376315 201.775 0.686417 202.162 1.14457 202.276C1.88116 202.456 171.485 202.456 172.222 202.276C172.68 202.162 172.99 201.775 173.078 201.311C173.432 199.44 173.491 196.919 173.082 194.917Z" fill="#BA523B"/>
<path d="M172.222 202.276C171.485 202.456 1.88108 202.456 1.1445 202.276L0.815796 202.13C2.05437 204.06 5.60931 210.387 6.06747 210.502C7.3983 210.829 52.1271 210.548 86.6835 210.548C121.239 210.548 165.968 210.829 167.298 210.502C167.756 210.387 171.312 204.06 172.551 202.13L172.222 202.276Z" fill="#903C28"/>
<path d="M86.6835 208.697C60.4239 208.697 31.3517 208.776 4.86133 208.842C5.46054 209.796 5.92146 210.465 6.06749 210.502C7.39831 210.829 52.1271 210.548 86.6835 210.548C121.239 210.548 165.968 210.829 167.3 210.502C167.445 210.465 167.905 209.796 168.506 208.842C142.014 208.776 112.942 208.697 86.6835 208.697Z" fill="#58251D"/>
<path d="M171.388 199.304C171.342 198.523 171.706 195.177 172.231 194.595C171.157 194.501 170.082 194.407 169.008 194.313C169.587 194.538 170.038 195.059 170.18 195.663C170.679 197.781 168.316 199.902 166.976 199.933C165.311 199.972 8.05507 199.972 6.3913 199.933C5.05053 199.902 2.6883 197.781 3.18605 195.663C3.32784 195.059 3.78029 194.538 4.35703 194.313C3.28383 194.407 2.20989 194.501 1.13668 194.595C1.66039 195.177 2.02427 198.523 1.97823 199.304C1.92427 200.213 1.33887 200.679 0.646851 201.112C0.972053 201.769 2.45664 201.58 3.04794 201.602C4.80377 201.664 6.56108 201.699 8.31766 201.736C17.894 201.937 155.472 201.937 165.049 201.736C166.806 201.699 168.563 201.664 170.318 201.602C170.911 201.58 172.395 201.769 172.721 201.112C172.028 200.679 171.443 200.213 171.388 199.304Z" fill="#F9AE9B"/>
<path d="M159.124 23.3369C159.124 23.3369 158.927 17.3392 124.9 17.3392C90.8723 17.3392 90.675 23.3369 90.675 23.3369C87.2094 37.03 87.2094 50.7231 90.675 64.4144V64.4163C90.7025 64.4292 93.4776 70.4139 124.9 70.4139C156.321 70.4139 159.098 64.4292 159.124 64.4163C162.589 50.7231 162.589 37.03 159.124 23.3369Z" fill="#E9D8C3"/>
<path d="M159.674 33.4557C160.529 42.4402 159.82 51.4266 157.545 60.4111C157.52 60.4258 154.872 66.1325 124.9 66.1325C94.9269 66.1325 92.2798 60.4258 92.254 60.4111C89.9802 51.4266 89.2709 42.4402 90.1255 33.4557C88.8508 43.3812 89.4673 53.3086 91.9798 63.2341V63.2359C92.0058 63.2488 94.6752 69.0052 124.9 69.0052C155.124 69.0052 157.794 63.2488 157.82 63.2359V63.2341C160.332 53.3086 160.948 43.3812 159.674 33.4557Z" fill="#FDFAEC"/>
<path d="M151.605 24.3993C151.605 24.3993 151.452 19.7809 125.245 19.7809C99.0373 19.7809 98.8853 24.3993 98.8853 24.3993C96.216 34.9454 96.216 45.4915 98.8853 56.0376V56.0394C98.9063 56.0505 101.044 60.6578 125.245 60.6578C149.445 60.6578 151.583 56.0505 151.605 56.0394V56.0376C154.273 45.4915 154.273 34.9454 151.605 24.3993Z" fill="#FDFAEC"/>
<path d="M82.9761 23.3369C82.9761 23.3369 82.7796 17.3392 48.7521 17.3392C14.7246 17.3392 14.5276 23.3369 14.5276 23.3369C11.0619 37.03 11.0619 50.7231 14.5276 64.4144V64.4163C14.5541 64.4292 17.3301 70.4139 48.7521 70.4139C80.1736 70.4139 82.9494 64.4292 82.9761 64.4163H82.9768C86.4417 50.7231 86.4418 37.03 82.9761 23.3369Z" fill="#E9D8C3"/>
<path d="M83.5256 33.4557C84.381 42.4402 83.6717 51.4266 81.3973 60.4111C81.3721 60.4258 78.7242 66.1325 48.7522 66.1325C18.7796 66.1325 16.1324 60.4258 16.1065 60.4111C13.8326 51.4266 13.1235 42.4402 13.9779 33.4557C12.7035 43.3812 13.3198 53.3086 15.8325 63.2341V63.2359C15.8583 63.2488 18.5276 69.0052 48.7522 69.0052C78.9759 69.0052 81.6461 63.2488 81.6713 63.2359L81.672 63.2341C84.1838 53.3086 84.8003 43.3812 83.5256 33.4557Z" fill="#FDFAEC"/>
<path d="M75.4563 24.3993C75.4563 24.3993 75.3045 19.7809 49.0973 19.7809C22.8896 19.7809 22.7379 24.3993 22.7379 24.3993C20.0685 34.9454 20.0685 45.4915 22.7379 56.0376V56.0394C22.7587 56.0505 24.8964 60.6578 49.0973 60.6578C73.2983 60.6578 75.4362 56.0505 75.4563 56.0394L75.457 56.0376C78.1257 45.4915 78.1257 34.9454 75.4563 24.3993Z" fill="#FDFAEC"/>
<path d="M166.974 92.0198H6.39267C3.31245 92.0198 0.815796 89.5227 0.815796 86.442V78.4722C0.815796 75.3914 3.31245 72.8962 6.39267 72.8962H166.974C170.054 72.8962 172.551 75.3914 172.551 78.4722V86.442C172.551 89.5227 170.054 92.0198 166.974 92.0198Z" fill="#FDFAEC"/>
<path d="M167.327 88.5652H6.04022C3.15501 88.5652 0.815796 86.2265 0.815796 83.3428V86.7956C0.815796 89.6811 3.15501 92.0198 6.04022 92.0198H167.327C170.211 92.0198 172.55 89.6811 172.55 86.7956V83.3428C172.55 86.2265 170.211 88.5652 167.327 88.5652Z" fill="#E9D8C3"/>
</svg>
