<svg width="69" height="79" viewBox="0 0 69 79" fill="none" xmlns="http://www.w3.org/2000/svg">
<path d="M65.4133 51.698C65.4133 68.8273 51.5268 78.4066 34.3957 78.4066C17.2664 78.4066 3.37988 68.8273 3.37988 51.698C3.37988 34.5687 17.2664 16.3732 34.3957 16.3732C51.5268 16.3732 65.4133 34.5687 65.4133 51.698Z" fill="#58251D"/>
<path d="M63.4264 51.698C63.4264 67.7298 50.4293 76.4197 34.3957 76.4197C18.3639 76.4197 5.36682 67.7298 5.36682 51.698C5.36682 35.6662 18.3639 18.3602 34.3957 18.3602C50.4293 18.3602 63.4264 35.6662 63.4264 51.698Z" fill="#BA523B"/>
<path d="M34.3957 75.0717C18.5904 75.0717 5.76275 66.6121 5.40182 51.013C5.3963 51.2414 5.36682 51.4697 5.36682 51.698C5.36682 67.7298 18.3639 76.4197 34.3957 76.4197C50.4293 76.4197 63.4264 67.7298 63.4264 51.698C63.4264 51.4697 63.3969 51.2414 63.3914 51.013C63.0304 66.6121 50.201 75.0717 34.3957 75.0717Z" fill="#F9AE9B"/>
<path d="M11.8728 36.1432C10.0589 39.6936 9.05167 48.028 9.12164 52.3057C9.34078 65.6214 20.2699 72.4661 33.5781 72.9302C48.0023 73.4329 59.854 66.1996 59.854 51.8878C59.854 47.8016 58.8707 39.6457 57.1452 36.2353C55.9814 33.9335 53.7403 32.3351 51.1789 32.0386C40.0546 30.7551 28.9247 30.7551 17.7876 32.0405C15.2629 32.3314 13.0292 33.8801 11.8728 36.1432Z" fill="#D8BAA0"/>
<path d="M14.3715 37.8981C12.7584 41.0544 11.8616 49.0574 11.9242 52.8618C12.1194 64.7061 21.8405 70.2066 33.6793 70.6191C46.5088 71.0666 57.0493 65.2199 57.0493 52.4899C57.0493 48.8548 56.1765 41.012 54.6407 37.9773C53.6058 35.9314 51.6133 34.508 49.3354 34.2446C39.4394 33.1029 29.5397 33.1029 19.6326 34.2465C17.3878 34.5061 15.3991 35.8835 14.3715 37.8981Z" fill="#FDFAEC"/>
<path d="M34.3865 6.73862C58.4323 6.73862 68.2621 9.58736 68.2621 9.58736L57.0752 29.2763C57.0752 29.2763 56.3201 28.9964 34.3865 28.9964C12.4509 28.9964 11.4602 29.6023 11.4602 29.6023L0.531128 9.61686C0.531128 9.61686 10.3388 6.73862 34.3865 6.73862Z" fill="#903C28"/>
<path d="M34.3865 0.319345C52.2432 0.319345 62.2736 2.38361 65.986 3.34486C66.9694 3.59898 67.7225 4.47185 67.8478 5.48098L68.4094 9.08285C68.4094 9.69237 67.8367 10.1307 67.2493 9.96676C63.9991 9.06444 53.7587 6.73867 34.3865 6.73867C15.0143 6.73867 4.77205 9.06444 1.52371 9.96676C0.936281 10.1307 0.361755 9.69237 0.361755 9.08285L0.923389 5.48098C1.04861 4.47185 1.80176 3.59898 2.78511 3.34486C6.4975 2.38361 16.528 0.319345 34.3865 0.319345Z" fill="#BA523B"/>
<path d="M4.97273 12.0789C5.02982 11.6203 5.35576 11.2447 5.80324 11.1324C9.45854 10.2172 18.5296 8.46224 34.3865 8.46224C50.2415 8.46224 59.3125 10.2172 62.9678 11.1324C63.4153 11.2447 63.7413 11.6203 63.7983 12.0789L63.9199 13.0475C63.9493 13.274 63.907 13.5042 63.8002 13.7067L57.3956 25.9359C56.6903 27.212 54.6978 27.4312 34.3865 27.4312C14.0751 27.4312 12.0808 27.212 11.3755 25.9359L4.97089 13.7067C4.86593 13.5042 4.82357 13.274 4.85119 13.0475L4.97273 12.0789Z" fill="#D8BAA0"/>
<path d="M62.9678 13.6258C59.3125 12.7106 50.2415 10.9557 34.3865 10.9557C18.5296 10.9557 9.45854 12.7106 5.80324 13.6258C5.52886 13.694 5.32998 13.8799 5.18082 14.1064L4.97089 13.7068C4.86593 13.5043 4.82357 13.2741 4.85119 13.0476L4.97273 12.079C5.02982 11.6204 5.35576 11.2448 5.80324 11.1325C9.45854 10.2173 18.5296 8.46234 34.3865 8.46234C50.2415 8.46234 59.3125 10.2173 62.9678 11.1325C63.4153 11.2448 63.7413 11.6204 63.7983 12.079L63.9199 13.0476C63.9475 13.2741 63.907 13.5043 63.8002 13.7068L63.5921 14.1064C63.4429 13.8799 63.2422 13.694 62.9678 13.6258Z" fill="#FDFAEC"/>
<path d="M9.52307 17.0932C15.7527 16.9661 21.9787 16.6255 28.1845 16.073C20.7891 16.3327 21.1758 14.0585 18.5757 14.0235C16.482 13.9958 17.5003 16.3953 9.52307 17.0932Z" fill="#FDFAEC"/>
<path d="M39.1854 16.1485C45.3948 16.6513 51.6226 16.9404 57.8541 17.0177C50.4699 16.5297 51.0849 14.3052 48.5013 14.0087C46.4205 13.7694 47.1921 16.259 39.1854 16.1485Z" fill="#FDFAEC"/>
<path d="M16.8447 24.8255C21.7245 25.2564 26.6192 25.5216 31.5175 25.6173C25.715 25.1919 26.2104 23.4462 24.1829 23.1976C22.5477 22.9988 23.1388 24.9599 16.8447 24.8255Z" fill="#FDFAEC"/>
<path d="M36.657 25.5179C41.5553 25.4885 46.4517 25.2933 51.3371 24.9287C45.5218 25.0483 45.8514 23.2658 43.8074 23.2088C42.1611 23.1627 42.9345 25.0612 36.657 25.5179Z" fill="#FDFAEC"/>
<path d="M25.2859 20.8682C31.1823 21.0229 37.0824 20.975 42.9751 20.7245C35.972 20.6454 36.4379 18.5111 33.9813 18.3638C32.0018 18.246 32.8599 20.5588 25.2859 20.8682Z" fill="#FDFAEC"/>
<path d="M3.24908 3.72418C5.17342 4.89536 4.50311 7.07194 3.33194 8.57642C3.33194 8.57642 8.35179 6.56924 27.0095 6.15122C45.6672 5.73137 53.2799 5.98364 66.3322 8.99628C66.3322 8.99628 62.8186 6.06652 65.579 4.2269C65.579 4.2269 63.7394 3.47371 61.5628 3.13857C61.5628 3.13857 64.9953 5.91551 62.2331 6.6521C61.4504 6.86202 56.6387 5.58037 52.1308 5.13657C41.2367 4.06116 25.2399 4.02065 15.9534 5.27653C6.66684 6.53056 6.3004 6.3722 6.13283 5.78662C5.96525 5.20103 4.55469 4.07955 7.14747 2.90838L3.24908 3.72418Z" fill="#F9AE9B"/>
</svg>
