<svg width="74" height="79" viewBox="0 0 74 79" fill="none" xmlns="http://www.w3.org/2000/svg">
<path d="M65.3529 30.4382H9.91925V75.659H59.799C62.8669 75.659 65.3529 73.1712 65.3529 70.1052V30.4382Z" fill="#4A5580"/>
<path d="M10.665 27.1843C10.8215 26.0389 11.6447 25.1053 12.768 24.8291C16.0347 24.0225 23.8702 22.5475 37.5007 22.5475C51.133 22.5475 58.9685 24.0225 62.2353 24.8291C63.3567 25.1053 64.1817 26.0389 64.3382 27.1843C65.7764 37.7746 65.7396 62.0138 64.3272 72.7827C64.1762 73.9336 63.3493 74.8745 62.2224 75.1526C58.9482 75.961 51.1146 77.4324 37.5007 77.4324C23.8886 77.4324 16.055 75.961 12.7809 75.1526C11.6539 74.8745 10.8271 73.9336 10.6761 72.7827C9.26367 62.0138 9.22683 37.7746 10.665 27.1843Z" fill="#BA523B"/>
<path d="M64.3346 71.2911C64.1817 72.4438 63.3567 73.3848 62.2279 73.6629C58.9538 74.4695 51.1184 75.9408 37.5026 75.9408C23.8849 75.9408 16.0495 74.4695 12.7754 73.6629C11.6466 73.3848 10.8198 72.4438 10.6688 71.2911C9.99846 66.1755 9.64121 58.0197 9.60254 49.7312C9.60254 58.5224 9.96532 67.3596 10.6761 72.7827C10.8271 73.9336 11.6539 74.8745 12.7809 75.1526C16.055 75.961 23.8886 77.4324 37.5026 77.4324C51.1147 77.4324 58.9483 75.961 62.2224 75.1526C63.3494 74.8745 64.1762 73.9336 64.3272 72.7827C65.0399 67.3559 65.4008 58.5113 65.4008 49.7128C65.3621 58.0067 65.0049 66.1718 64.3346 71.2911Z" fill="#F9AE9B"/>
<path d="M14.4677 32.8983C14.5745 32.1618 15.1103 31.5688 15.8303 31.381C18.3734 30.7162 25.1905 30.2945 37.5007 30.2945C49.8127 30.2945 56.6298 30.7162 59.1729 31.381C59.8929 31.5688 60.4288 32.1618 60.5356 32.8983C61.8522 41.9049 61.8191 60.8223 60.5282 69.9983C60.4251 70.7404 59.8892 71.3389 59.1637 71.5286C56.6133 72.1934 49.798 73.5873 37.5007 73.5873C25.2052 73.5873 18.39 72.1934 15.8395 71.5286C15.114 71.3389 14.5782 70.7404 14.475 69.9983C13.1842 60.8223 13.151 41.9049 14.4677 32.8983Z" fill="#D8BAA0"/>
<path d="M16.8891 34.8614C16.9849 34.2021 17.4636 33.6699 18.1082 33.5024C20.3842 32.9076 26.485 32.5301 37.5006 32.5301C48.5181 32.5301 54.6189 32.9076 56.8949 33.5024C57.5394 33.6699 58.0182 34.2021 58.114 34.8614C59.2925 42.9196 59.2612 59.9274 58.1084 68.1403C58.0145 68.8033 57.5339 69.3391 56.8857 69.5085C54.6041 70.1033 48.5052 71.3518 37.5006 71.3518C26.4979 71.3518 20.3989 70.1033 18.1173 69.5085C17.4692 69.3391 16.9885 68.8033 16.8946 68.1403C15.7419 59.9274 15.7106 42.9215 16.8891 34.8614Z" fill="#FDFAEC"/>
<path d="M12.7809 75.1526C16.055 75.961 23.8886 77.4324 37.5007 77.4324C51.1147 77.4324 58.9482 75.961 62.2224 75.1526C62.7251 75.0292 63.1523 74.7586 63.5022 74.4105L64.9938 75.7585C64.6218 76.1341 64.1615 76.4251 63.6219 76.5577C60.1636 77.4103 51.8862 78.9645 37.5007 78.9645C23.117 78.9645 14.8396 77.4103 11.3795 76.5577C10.9541 76.4527 10.5896 76.2336 10.2636 75.9721L11.7552 74.626C12.0572 74.8598 12.3923 75.0569 12.7809 75.1526Z" fill="#903C28"/>
<path d="M63.5021 74.4105C63.9386 73.9796 64.2442 73.4216 64.3271 72.7826C65.7395 62.0138 65.7763 37.7745 64.3382 27.1843C64.1816 26.0389 63.3567 25.1053 62.2352 24.8291C58.9685 24.0225 51.133 22.5475 37.5006 22.5475C23.8701 22.5475 16.0347 24.0225 12.7679 24.8291C11.6446 25.1053 10.8197 26.0389 10.665 27.1843C9.22679 37.7745 9.26363 62.0138 10.676 72.7826C10.7755 73.5376 11.1824 74.1785 11.7551 74.626L10.2635 75.9721C9.67612 75.5007 9.2581 74.834 9.15498 74.0532C7.66339 62.673 7.62471 37.1043 9.14392 25.9137C9.30965 24.7038 10.1807 23.7168 11.3666 23.424C14.8175 22.5733 23.0985 21.0135 37.5006 21.0135C51.9046 21.0135 60.1857 22.5733 63.6366 23.424C64.8225 23.7168 65.6935 24.7038 65.8592 25.9137C67.3784 37.1043 67.3398 62.673 65.8482 74.0532C65.7598 74.7198 65.4449 75.3036 64.9937 75.7584L63.5021 74.4105Z" fill="#58251D"/>
<path d="M37.5006 6.95034C63.2977 6.95034 73.8419 10.0053 73.8419 10.0053L64.3602 27.3446C64.3602 27.3446 61.0308 23.4959 37.5006 23.4959C13.9722 23.4959 10.6428 27.3446 10.6428 27.3446L1.18323 10.0366C1.18323 10.0366 11.7054 6.95034 37.5006 6.95034Z" fill="#903C28"/>
<path d="M5.94898 12.6773C6.01159 12.1857 6.35962 11.7824 6.84025 11.6627C10.7607 10.6793 20.4929 8.79735 37.5006 8.79735C54.5102 8.79735 64.2424 10.6793 68.1629 11.6627C68.6435 11.7824 68.9915 12.1857 69.0542 12.6773L69.183 13.7159C69.2144 13.959 69.1702 14.2057 69.056 14.423L62.1855 27.5416C61.4286 28.9098 59.2907 29.1455 37.5006 29.1455C15.7124 29.1455 13.5745 28.9098 12.8195 27.5416L5.94714 14.423C5.83297 14.2057 5.78878 13.959 5.82009 13.7159L5.94898 12.6773Z" fill="#D8BAA0"/>
<path d="M68.1629 14.3346C64.2424 13.355 54.5102 11.4711 37.5006 11.4711C20.4929 11.4711 10.7607 13.355 6.84025 14.3346C6.54561 14.4101 6.332 14.609 6.17179 14.852L5.94714 14.423C5.83297 14.2057 5.78878 13.959 5.82009 13.7159L5.94898 12.6773C6.01159 12.1856 6.35962 11.7824 6.84025 11.6627C10.7607 10.6793 20.4929 8.79733 37.5006 8.79733C54.5102 8.79733 64.2424 10.6793 68.1629 11.6627C68.6435 11.7824 68.9915 12.1856 69.0542 12.6773L69.183 13.7159C69.2144 13.959 69.1702 14.2057 69.056 14.423L68.8313 14.852C68.6711 14.609 68.4575 14.4101 68.1629 14.3346Z" fill="#FDFAEC"/>
<path d="M10.8307 18.0581C17.5134 17.9199 24.1905 17.5553 30.8474 16.9624C22.9144 17.2404 23.3306 14.8005 20.5426 14.7637C18.2941 14.7342 19.3861 17.3086 10.8307 18.0581Z" fill="#FDFAEC"/>
<path d="M42.6495 17.0435C49.3119 17.5812 55.9927 17.8923 62.6772 17.9752C54.7553 17.4522 55.4145 15.0657 52.6449 14.7472C50.4112 14.4912 51.2381 17.1631 42.6495 17.0435Z" fill="#FDFAEC"/>
<path d="M18.6846 26.3502C23.9199 26.8142 29.1699 27.0978 34.4236 27.2009C28.1994 26.7424 28.7316 24.8715 26.555 24.6044C24.8019 24.3908 25.4354 26.4957 18.6846 26.3502Z" fill="#FDFAEC"/>
<path d="M39.937 27.0941C45.1925 27.0628 50.4462 26.8511 55.6851 26.4625C49.4463 26.5914 49.7998 24.6781 47.6085 24.6155C45.8425 24.5676 46.6712 26.6025 39.937 27.0941Z" fill="#FDFAEC"/>
<path d="M27.741 22.1056C34.0646 22.2714 40.3955 22.2198 46.7154 21.9509C39.2023 21.8662 39.7031 19.5773 37.068 19.4208C34.9448 19.2937 35.8637 21.7742 27.741 22.1056Z" fill="#FDFAEC"/>
<path d="M37.4768 0.103728C56.6335 0.103728 67.3932 2.31719 71.3763 3.34841C72.4315 3.62095 73.238 4.56009 73.3724 5.64103L73.9765 9.50442C73.9765 10.16 73.3596 10.6277 72.7298 10.4528C69.2439 9.48419 58.2577 6.99083 37.4768 6.99083C16.6958 6.99083 5.70967 9.48419 2.22377 10.4528C1.59399 10.6277 0.978943 10.16 0.978943 9.50442L1.58111 5.64103C1.71553 4.56009 2.52393 3.62095 3.57725 3.34841C7.56034 2.31719 18.32 0.103728 37.4768 0.103728Z" fill="#BA523B"/>
<path d="M4.07446 3.75723C6.13875 5.01311 5.42057 7.34625 4.16469 8.96305C4.16469 8.96305 10.4754 6.5452 30.4903 6.09772C50.5052 5.6484 57.7458 6.18058 71.7483 9.41051C71.7483 9.41051 67.977 6.26902 70.9399 4.29496C70.9399 4.29496 68.9658 3.48655 66.6309 3.12746C66.6309 3.12746 70.3138 6.10694 67.349 6.89693C66.5112 7.12159 61.3495 5.746 56.5138 5.2709C44.8261 4.11815 27.6673 4.07396 17.705 5.42007C7.74264 6.76619 7.34858 6.59861 7.16995 5.96883C6.98949 5.34089 5.47581 4.13657 8.25827 2.88069L4.07446 3.75723Z" fill="#F9AE9B"/>
</svg>
