<svg width="167" height="100" viewBox="0 0 167 100" fill="none" xmlns="http://www.w3.org/2000/svg">
<path d="M2.4342 96.0763H160.864V3.30309H2.4342V96.0763Z" fill="#4A5580"/>
<path d="M157.709 99.4297H8.8837C4.11025 99.4297 0.240967 95.5607 0.240967 90.7877V8.81301C0.240967 4.03993 4.11025 0.17098 8.8837 0.17098H157.709C162.482 0.17098 166.351 4.03993 166.351 8.81301V90.7877C166.351 95.5607 162.482 99.4297 157.709 99.4297Z" fill="#8F3B27"/>
<path d="M157.236 96.6785H9.35695C5.61013 96.6785 2.573 93.6419 2.573 89.8945V9.70607C2.573 5.95869 5.61013 2.92214 9.35695 2.92214H157.236C160.981 2.92214 164.018 5.95869 164.018 9.70607V89.8945C164.018 93.6419 160.981 96.6785 157.236 96.6785Z" fill="#BA523B"/>
<path d="M156.241 94.0562H10.3512C7.0286 94.0562 4.33472 90.1339 4.33472 86.8101V89.1027C4.33472 92.4247 7.0286 95.1188 10.3512 95.1188H156.241C159.563 95.1188 162.257 92.4247 162.257 89.1027V86.8101C162.257 90.1339 159.563 94.0562 156.241 94.0562Z" fill="#F9AD9C"/>
<path d="M156.241 5.5444H10.3512C7.0286 5.5444 4.33472 9.46669 4.33472 12.7887V10.4979C4.33472 7.17408 7.0286 4.48003 10.3512 4.48003H156.241C159.563 4.48003 162.257 7.17408 162.257 10.4979V12.7887C162.257 9.46669 159.563 5.5444 156.241 5.5444Z" fill="#8F3B27"/>
</svg>
