<svg width="96" height="76" viewBox="0 0 96 76" fill="none" xmlns="http://www.w3.org/2000/svg">
<path d="M84.6045 0.429428H11.1245C5.04768 0.429428 0.121765 5.35535 0.121765 11.4322V57.876C0.121765 61.3653 1.75148 64.4684 4.28534 66.4848L9.2407 73.4104C10.3401 74.9461 12.1097 75.856 13.9972 75.856H81.7318C83.6175 75.856 85.389 74.9461 86.4865 73.4104L91.4437 66.4848C93.9776 64.4684 95.6073 61.3653 95.6073 57.876V11.4322C95.6073 5.35535 90.6813 0.429428 84.6045 0.429428Z" fill="#4A5580"/>
<path d="M81.7318 75.856H13.9972C12.1096 75.856 10.34 74.9461 9.24063 73.4104L0.963257 61.8443H94.7638L86.4864 73.4104C85.3889 74.9461 83.6174 75.856 81.7318 75.856Z" fill="#BA523B"/>
<path d="M84.6045 68.8787H11.1245C5.04768 68.8787 0.121765 63.9528 0.121765 57.8759V11.4322C0.121765 5.35532 5.04768 0.429405 11.1245 0.429405H84.6045C90.6813 0.429405 95.6073 5.35532 95.6073 11.4322V57.8759C95.6073 63.9528 90.6813 68.8787 84.6045 68.8787Z" fill="#8F3B27"/>
<path d="M83.9195 65.5309H11.8077C7.07149 65.5309 3.23022 61.6911 3.23022 56.953V12.3549C3.23022 7.61684 7.07149 3.77702 11.8077 3.77702H83.9195C88.6576 3.77702 92.4971 7.61684 92.4971 12.3549V56.953C92.4971 61.6911 88.6576 65.5309 83.9195 65.5309Z" fill="#BA523B"/>
<path d="M82.2566 61.8443H13.4705C8.78952 61.8443 4.99609 58.0046 4.99609 53.2663V55.11C4.99609 59.8483 8.78952 63.6872 13.4705 63.6872H82.2566C86.9376 63.6872 90.7329 59.8483 90.7329 55.11V53.2663C90.7329 58.0046 86.9376 61.8443 82.2566 61.8443Z" fill="#F9AD9C"/>
<path d="M82.2566 7.46366H13.4705C8.78952 7.46366 4.99609 11.3035 4.99609 16.0416V14.1979C4.99609 9.4598 8.78952 5.62071 13.4705 5.62071H82.2566C86.9376 5.62071 90.7329 9.4598 90.7329 14.1979V16.0416C90.7329 11.3035 86.9376 7.46366 82.2566 7.46366Z" fill="#8F3B27"/>
<path d="M45.989 69.9504H12.3639C11.5886 69.9504 11.1393 70.8266 11.5904 71.4567L13.7302 74.4491C13.9107 74.6994 14.198 74.8469 14.5055 74.8469H46.315C46.7256 74.8469 47.0479 74.4929 47.0092 74.0843L46.6851 70.5841C46.652 70.2244 46.35 69.9504 45.989 69.9504Z" fill="#8F3B27"/>
<path d="M83.3633 69.9504H49.7382C49.3773 69.9504 49.0771 70.2244 49.044 70.5841L48.718 74.0843C48.6812 74.4929 49.0035 74.8469 49.4141 74.8469H81.2217C81.5292 74.8469 81.8184 74.6994 81.997 74.4491L84.1386 71.4567C84.5897 70.8266 84.1386 69.9504 83.3633 69.9504Z" fill="#8F3B27"/>
<path d="M45.9448 71.7646C45.814 72.4292 45.3353 72.8636 44.8454 72.8636C44.3574 72.8636 43.8768 72.4292 43.7479 71.7646C43.5785 70.8971 44.0462 69.967 44.8454 69.967C45.6446 69.967 46.1123 70.8971 45.9448 71.7646Z" fill="#E9D8C3"/>
<path d="M51.8154 71.7646C51.6865 72.4292 51.2058 72.8636 50.7179 72.8636C50.2299 72.8636 49.7493 72.4292 49.6204 71.7646C49.4509 70.8971 49.9187 69.967 50.7179 69.967C51.5171 69.967 51.9848 70.8971 51.8154 71.7646Z" fill="#E9D8C3"/>
</svg>
