<svg width="217" height="104" viewBox="0 0 217 104" fill="none" xmlns="http://www.w3.org/2000/svg">
<path d="M200.374 22.7295L14.1764 21.0316V102.997H202.986L210.084 33.1264C210.355 27.5431 205.963 22.84 200.374 22.7295Z" fill="#4A5580"/>
<path d="M212.499 88.0702H4.23621L10.151 99.4228C11.173 101.747 13.5338 103.257 16.1468 103.257H200.59C203.203 103.257 205.564 101.747 206.584 99.4228L212.499 88.0702Z" fill="#58251D"/>
<path d="M21.9327 82.1186V97.307H196.734V82.1186H21.9327Z" fill="#903C28"/>
<path d="M32.5984 15.2403C17.259 15.2403 6.01134 25.4033 3.68557 59.0635C1.83858 85.7794 -0.198053 89.5729 2.88088 93.5357C3.6101 94.4748 8.37025 98.4966 9.88946 98.4966C17.259 98.4966 20.3858 98.4966 26.5787 98.4966C32.7715 98.4966 32.5984 95.878 32.5984 80.1004C32.5984 64.3227 32.5984 15.2403 32.5984 15.2403Z" fill="#58251D"/>
<path d="M2.32287 75.423C1.13328 87.7203 0.588215 90.5857 2.88084 93.5357C3.61006 94.4748 8.37021 98.4966 9.88942 98.4966C17.259 98.4966 20.3858 98.4966 26.5786 98.4966C28.6429 98.4966 29.989 98.1891 30.8821 97.2168L2.32287 75.423Z" fill="#903C28"/>
<path d="M24.0854 15.2404C20.594 15.2404 0.151861 23.5822 0.151861 48.1841C0.151861 61.9307 0.0818886 74.2758 0.155547 79.4761C0.321279 91.0626 2.04305 94.7714 5.95801 94.7714C11.8396 94.7714 14.3348 94.7714 19.2791 94.7714C24.2235 94.7714 24.0854 89.2967 24.0854 74.8062C24.0854 60.3157 24.0854 15.2404 24.0854 15.2404Z" fill="#BA523B"/>
<path d="M24.0854 32.5077C24.0854 22.6908 24.0854 15.2403 24.0854 15.2403C21.476 15.2403 9.4126 19.8992 3.47388 32.5077H24.0854Z" fill="#903C28"/>
<path d="M19.0876 92.777C13.9481 92.777 11.3534 92.777 5.23606 92.777C3.58243 92.777 2.31186 92.1491 1.36719 90.6428C2.29713 93.6259 3.79054 94.7695 5.95795 94.7695C11.8396 94.7695 14.3347 94.7695 19.2791 94.7695C22.7963 94.7695 23.741 91.987 23.9932 85.1626C23.9932 85.1626 23.8901 92.777 19.0876 92.777Z" fill="#F9AE9B"/>
<path d="M19.6548 55.666C19.6548 44.5085 19.7524 40.2934 16.2279 40.2934H6.72403C3.93237 40.2934 2.70596 43.1477 2.58627 52.0714C2.55865 54.248 2.55865 74.5097 2.58627 76.6863C2.70596 85.6082 3.93237 88.4625 6.72403 88.4625H16.2279C19.7524 88.4625 19.6548 84.2474 19.6548 73.0899V55.666Z" fill="#D8BAA0"/>
<path d="M17.8759 54.6715C17.8759 44.6761 17.9643 40.8992 14.8044 40.8992H6.29129C3.79058 40.8992 2.6912 43.457 2.5844 51.4508C2.55862 53.3991 2.55862 73.1617 2.5844 75.11C2.6912 83.1038 3.79058 85.6616 6.29129 85.6616H14.8044C17.9643 85.6616 17.8759 81.8847 17.8759 71.8892V54.6715Z" fill="#FDFAEC"/>
<path d="M184.136 15.2403C199.477 15.2403 210.723 25.4033 213.051 59.0635C214.898 85.7794 216.935 89.5729 213.856 93.5357C213.126 94.4748 208.366 98.4966 206.845 98.4966C199.477 98.4966 196.351 98.4966 190.158 98.4966C183.963 98.4966 184.136 95.878 184.136 80.1004C184.136 64.3227 184.136 15.2403 184.136 15.2403Z" fill="#58251D"/>
<path d="M214.414 75.423C215.603 87.7203 216.148 90.5857 213.856 93.5357C213.126 94.4748 208.366 98.4966 206.845 98.4966C199.478 98.4966 196.351 98.4966 190.158 98.4966C188.092 98.4966 186.746 98.1891 185.854 97.2168L214.414 75.423Z" fill="#903C28"/>
<path d="M192.651 15.2404C196.143 15.2404 215.732 23.0868 215.732 47.687C215.732 61.4353 216.655 74.2758 216.579 79.4761C216.414 91.0626 214.694 94.7714 210.779 94.7714C204.897 94.7714 202.402 94.7714 197.458 94.7714C192.513 94.7714 192.651 89.2967 192.651 74.8062C192.651 60.3157 192.651 15.2404 192.651 15.2404Z" fill="#BA523B"/>
<path d="M213.141 33.4928C207.702 19.9507 195.355 15.2403 192.651 15.2403C192.651 15.2403 192.651 23.199 192.651 33.4928H213.141Z" fill="#903C28"/>
<path d="M197.647 92.777C202.788 92.777 205.383 92.777 211.499 92.777C213.152 92.777 214.425 92.1491 215.369 90.6428C214.439 93.6259 212.946 94.7695 210.779 94.7695C204.897 94.7695 202.402 94.7695 197.457 94.7695C193.938 94.7695 192.994 91.987 192.741 85.1626C192.741 85.1626 192.846 92.777 197.647 92.777Z" fill="#F9AE9B"/>
<path d="M197.014 55.666C197.014 44.5085 196.916 40.2934 200.442 40.2934H209.944C212.736 40.2934 213.964 43.1477 214.082 52.0714C214.112 54.248 214.112 74.5097 214.082 76.6863C213.964 85.6082 212.736 88.4625 209.944 88.4625H200.442C196.916 88.4625 197.014 84.2474 197.014 73.0899V55.666Z" fill="#D8BAA0"/>
<path d="M198.792 54.6715C198.792 44.6761 198.706 40.8992 201.864 40.8992H210.377C212.878 40.8992 213.979 43.457 214.084 51.4508C214.11 53.3991 214.11 73.1617 214.084 75.11C213.979 83.1038 212.878 85.6616 210.377 85.6616H201.864C198.706 85.6616 198.792 81.8847 198.792 71.8892V54.6715Z" fill="#FDFAEC"/>
<path d="M181.527 30.9222H35.2078C31.6354 30.9222 28.7388 33.8188 28.7388 37.3912V88.9154C28.7388 92.4897 31.6354 95.3845 35.2078 95.3845H75.3573C78.9279 95.3845 81.8245 92.4897 81.8245 88.9191C81.8264 92.4897 84.7211 95.3845 88.2936 95.3845H128.441C132.014 95.3845 134.908 92.4897 134.91 88.9191C134.912 92.4897 137.807 95.3845 141.379 95.3845H181.527C185.099 95.3845 187.996 92.4897 187.996 88.9154V37.3912C187.996 33.8188 185.099 30.9222 181.527 30.9222Z" fill="#E9D8C3"/>
<path d="M181.527 90.2044H141.379C137.807 90.2044 134.912 89.037 134.91 85.4664C134.908 89.037 132.014 90.2044 128.441 90.2044H88.2936C84.7211 90.2044 81.8264 89.037 81.8245 85.4664C81.8245 89.037 78.9279 90.2044 75.3573 90.2044H35.2078C31.6354 90.2044 28.7388 89.0351 28.7388 85.4627C28.7388 89.0351 31.6354 91.9318 35.2078 91.9318H75.3573C78.9279 91.9318 81.8245 89.037 81.8245 85.4664C81.8264 89.037 84.7211 91.9318 88.2936 91.9318H128.441C132.014 91.9318 134.908 89.037 134.91 85.4664C134.912 89.037 137.807 91.9318 141.379 91.9318H181.527C185.099 91.9318 187.996 89.0351 187.996 85.4627C187.996 89.0351 185.099 90.2044 181.527 90.2044Z" fill="#FDFAEC"/>
<path d="M181.527 91.9318H141.379C137.807 91.9318 134.912 89.037 134.91 85.4664C134.908 89.037 132.014 91.9318 128.441 91.9318H88.2936C84.7211 91.9318 81.8264 89.037 81.8245 85.4664C81.8245 89.037 78.9279 91.9318 75.3573 91.9318H35.2078C31.6354 91.9318 28.7388 89.0351 28.7388 85.4627V88.9154C28.7388 92.4897 31.6354 95.3845 35.2078 95.3845H75.3573C78.9279 95.3845 81.8245 92.4897 81.8245 88.9191C81.8264 92.4897 84.7211 95.3845 88.2936 95.3845H128.441C132.014 95.3845 134.908 92.4897 134.91 88.9191C134.912 92.4897 137.807 95.3845 141.379 95.3845H181.527C185.099 95.3845 187.996 92.4897 187.996 88.9154V85.4627C187.996 89.0351 185.099 91.9318 181.527 91.9318Z" fill="#D8BAA0"/>
<path d="M123.576 35.7892H93.1588C87.8535 35.7892 83.5518 39.8477 83.5518 44.8528V77.9366C83.5518 82.9436 87.8535 87.0003 93.1588 87.0003H123.576C128.881 87.0003 133.183 82.9436 133.183 77.9366V44.8528C133.183 39.8477 128.881 35.7892 123.576 35.7892ZM176.662 35.7892H146.245C140.939 35.7892 136.638 39.8477 136.638 44.8528V77.9366C136.638 82.9436 140.939 87.0003 146.245 87.0003H176.662C181.967 87.0003 186.269 82.9436 186.269 77.9366V44.8528C186.269 39.8477 181.967 35.7892 176.662 35.7892ZM80.0972 44.8528V77.9366C80.0972 82.9436 75.7974 87.0003 70.4903 87.0003H40.0748C34.7677 87.0003 30.4679 82.9436 30.4679 77.9366V44.8528C30.4679 39.8477 34.7677 35.7892 40.0748 35.7892H70.4903C75.7974 35.7892 80.0972 39.8477 80.0972 44.8528Z" fill="#FDFAEC"/>
<path d="M19.0784 18.0928C22.3138 23.2526 28.166 31.5318 32.0054 31.5318H184.976C188.675 31.5318 194.169 23.5472 197.446 18.3266L19.0784 18.0928Z" fill="#D8BAA0"/>
<path d="M190.02 21.6726H26.7167C21.0211 21.6726 16.4045 17.056 16.4045 11.3622V10.7398C16.4045 5.04601 21.0211 0.429416 26.7167 0.429416H190.02C195.713 0.429416 200.33 5.04601 200.33 10.7398V11.3622C200.33 17.056 195.713 21.6726 190.02 21.6726Z" fill="#E9D8C3"/>
<path d="M189.708 19.9471H27.0261C21.452 19.9471 16.8888 15.6492 16.4487 10.1874C16.4266 10.4728 16.4045 10.7601 16.4045 11.051C16.4045 16.9179 21.161 21.6726 27.0261 21.6726H189.708C195.575 21.6726 200.33 16.9179 200.33 11.051C200.33 10.7601 200.31 10.4728 200.288 10.1874C199.846 15.6492 195.283 19.9471 189.708 19.9471Z" fill="#FDFAEC"/>
<path d="M189.709 2.78284H27.0262C24.5384 2.78284 22.2494 3.63911 20.4393 5.07362C17.1688 7.66456 17.1688 12.7101 20.4393 15.3029C22.2494 16.7374 24.5384 17.5937 27.0262 17.5937H189.709C192.198 17.5937 194.485 16.7374 196.295 15.3029C199.568 12.7101 199.568 7.66456 196.295 5.07362C194.485 3.63911 192.198 2.78284 189.709 2.78284Z" fill="#FDFAEC"/>
<path d="M29.0333 26.1473C34.8671 26.1971 40.7008 26.046 46.5236 25.6962C39.596 25.7403 40.0195 23.6227 37.5888 23.5196C35.6294 23.4367 36.517 25.7091 29.0333 26.1473Z" fill="#FDFAEC"/>
<path d="M43.8296 29.9333C49.3485 30.0788 54.8728 30.0328 60.388 29.7989C53.8324 29.7253 54.2688 27.7273 51.9689 27.5892C50.1163 27.4787 50.9174 29.6442 43.8296 29.9333Z" fill="#FDFAEC"/>
<path d="M57.228 26.1473C63.0599 26.1971 68.8955 26.046 74.7183 25.6962C67.7907 25.7403 68.2142 23.6227 65.7816 23.5196C63.8223 23.4367 64.7099 25.7091 57.228 26.1473Z" fill="#FDFAEC"/>
<path d="M72.0225 29.9333C77.5413 30.0788 83.0657 30.0328 88.5827 29.7989C82.0253 29.7253 82.4617 27.7273 80.1617 27.5892C78.3092 27.4787 79.1121 29.6442 72.0225 29.9333Z" fill="#FDFAEC"/>
<path d="M85.4209 26.1473C91.2528 26.1971 97.0884 26.046 102.911 25.6962C95.9835 25.7403 96.4071 23.6227 93.9763 23.5196C92.017 23.4367 92.9046 25.7091 85.4209 26.1473Z" fill="#FDFAEC"/>
<path d="M100.215 29.9333C105.736 30.0788 111.259 30.0328 116.776 29.7989C110.22 29.7253 110.655 27.7273 108.356 27.5892C106.502 27.4787 107.305 29.6442 100.215 29.9333Z" fill="#FDFAEC"/>
<path d="M113.614 26.1473C119.447 26.1971 125.281 26.046 131.104 25.6962C124.176 25.7403 124.6 23.6227 122.169 23.5196C120.21 23.4367 121.097 25.7091 113.614 26.1473Z" fill="#FDFAEC"/>
<path d="M128.41 29.9333C133.929 30.0788 139.453 30.0328 144.968 29.7989C138.413 29.7253 138.849 27.7273 136.549 27.5892C134.697 27.4787 135.498 29.6442 128.41 29.9333Z" fill="#FDFAEC"/>
<path d="M141.808 26.1473C147.64 26.1971 153.474 26.046 159.297 25.6962C152.371 25.7403 152.795 23.6227 150.362 23.5196C148.403 23.4367 149.29 25.7091 141.808 26.1473Z" fill="#FDFAEC"/>
<path d="M156.603 29.9333C162.122 30.0788 167.646 30.0328 173.163 29.7989C166.606 29.7253 167.042 27.7273 164.742 27.5892C162.889 27.4787 163.692 29.6442 156.603 29.9333Z" fill="#FDFAEC"/>
<path d="M170.001 26.1473C175.833 26.1971 181.669 26.046 187.491 25.6962C180.564 25.7403 180.987 23.6227 178.555 23.5196C176.596 23.4367 177.483 25.7091 170.001 26.1473Z" fill="#FDFAEC"/>
</svg>
